<svg xmlns="http://www.w3.org/2000/svg" xmlns:xlink="http://www.w3.org/1999/xlink" width="50" zoomAndPan="magnify" viewBox="0 0 37.5 37.499999" height="50" preserveAspectRatio="xMidYMid meet" version="1.0"><defs><clipPath id="fc1d611147"><path d="M 7.5 7.5 L 30 7.5 L 30 30 L 7.5 30 Z M 7.5 7.5 " clip-rule="nonzero"/></clipPath></defs><g clip-path="url(#fc1d611147)"><path fill="#1dca79" d="M 18.746094 9.527344 C 21.746094 9.527344 22.101562 9.539062 23.289062 9.59375 C 24.386719 9.640625 24.980469 9.824219 25.378906 9.980469 C 25.902344 10.183594 26.277344 10.429688 26.671875 10.824219 C 27.066406 11.21875 27.308594 11.59375 27.515625 12.117188 C 27.667969 12.511719 27.851562 13.109375 27.90625 14.207031 C 27.960938 15.394531 27.96875 15.75 27.96875 18.753906 C 27.96875 21.753906 27.960938 22.109375 27.90625 23.296875 C 27.855469 24.390625 27.671875 24.988281 27.515625 25.386719 C 27.3125 25.910156 27.066406 26.285156 26.671875 26.679688 C 26.277344 27.074219 25.902344 27.316406 25.378906 27.523438 C 24.984375 27.675781 24.390625 27.859375 23.289062 27.914062 C 22.101562 27.964844 21.746094 27.976562 18.746094 27.976562 C 15.742188 27.976562 15.386719 27.964844 14.199219 27.914062 C 13.105469 27.863281 12.507812 27.679688 12.109375 27.523438 C 11.585938 27.320312 11.210938 27.074219 10.816406 26.679688 C 10.421875 26.285156 10.183594 25.910156 9.976562 25.386719 C 9.820312 24.992188 9.640625 24.398438 9.585938 23.296875 C 9.53125 22.109375 9.519531 21.753906 9.519531 18.753906 C 9.519531 15.75 9.53125 15.394531 9.585938 14.207031 C 9.632812 13.113281 9.816406 12.515625 9.976562 12.117188 C 10.175781 11.59375 10.421875 11.21875 10.816406 10.824219 C 11.210938 10.429688 11.585938 10.1875 12.109375 9.980469 C 12.503906 9.828125 13.101562 9.648438 14.199219 9.59375 C 15.386719 9.539062 15.742188 9.527344 18.746094 9.527344 M 18.746094 7.503906 C 15.6875 7.503906 15.308594 7.515625 14.105469 7.570312 C 12.90625 7.625 12.089844 7.816406 11.375 8.09375 C 10.636719 8.378906 10.007812 8.765625 9.382812 9.390625 C 8.761719 10.015625 8.378906 10.644531 8.089844 11.382812 C 7.816406 12.097656 7.625 12.914062 7.570312 14.113281 C 7.515625 15.3125 7.5 15.695312 7.5 18.746094 C 7.5 21.804688 7.515625 22.183594 7.570312 23.386719 C 7.625 24.585938 7.816406 25.402344 8.089844 26.117188 C 8.378906 26.855469 8.761719 27.484375 9.386719 28.109375 C 10.015625 28.734375 10.640625 29.121094 11.378906 29.40625 C 12.09375 29.683594 12.914062 29.875 14.109375 29.929688 C 15.308594 29.984375 15.695312 29.996094 18.75 29.996094 C 21.804688 29.996094 22.1875 29.984375 23.390625 29.929688 C 24.585938 29.875 25.40625 29.683594 26.121094 29.40625 C 26.859375 29.121094 27.484375 28.734375 28.113281 28.109375 C 28.738281 27.484375 29.121094 26.855469 29.410156 26.117188 C 29.683594 25.402344 29.875 24.585938 29.929688 23.386719 C 29.984375 22.1875 30 21.804688 30 18.746094 C 30 15.691406 29.984375 15.3125 29.929688 14.109375 C 29.875 12.910156 29.683594 12.09375 29.410156 11.378906 C 29.121094 10.636719 28.738281 10.011719 28.113281 9.386719 C 27.484375 8.757812 26.859375 8.375 26.121094 8.089844 C 25.40625 7.8125 24.585938 7.621094 23.390625 7.566406 C 22.1875 7.515625 21.800781 7.503906 18.746094 7.503906 " fill-opacity="1" fill-rule="nonzero"/></g><path fill="#1dca79" d="M 18.746094 12.976562 C 15.554688 12.976562 12.972656 15.558594 12.972656 18.746094 C 12.972656 21.9375 15.558594 24.523438 18.75 24.523438 C 21.941406 24.523438 24.527344 21.941406 24.527344 18.746094 C 24.523438 15.558594 21.933594 12.976562 18.746094 12.976562 M 18.746094 22.5 C 16.675781 22.5 15 20.824219 15 18.753906 C 15 16.683594 16.675781 15.003906 18.746094 15.003906 C 20.816406 15.003906 22.492188 16.683594 22.492188 18.753906 C 22.496094 20.816406 20.816406 22.5 18.746094 22.5 " fill-opacity="1" fill-rule="nonzero"/><path fill="#1dca79" d="M 26.101562 12.746094 C 26.101562 13.492188 25.492188 14.097656 24.75 14.097656 C 24.003906 14.097656 23.398438 13.492188 23.398438 12.746094 C 23.398438 12.003906 24.003906 11.398438 24.75 11.398438 C 25.492188 11.398438 26.101562 12 26.101562 12.746094 " fill-opacity="1" fill-rule="nonzero"/></svg>