<svg xmlns="http://www.w3.org/2000/svg" xmlns:xlink="http://www.w3.org/1999/xlink" width="50" zoomAndPan="magnify" viewBox="0 0 37.5 37.499999" height="50" preserveAspectRatio="xMidYMid meet" version="1.0"><defs><clipPath id="fb6000d939"><path d="M 5.625 7 L 31.875 7 L 31.875 30.9375 L 5.625 30.9375 Z M 5.625 7 " clip-rule="nonzero"/></clipPath></defs><g clip-path="url(#fb6000d939)"><path fill="#1dca79" d="M 25.214844 30.910156 C 24.855469 30.910156 24.546875 30.78125 24.292969 30.523438 L 18.824219 24.96875 L 15.8125 29.054688 C 15.664062 29.25 15.480469 29.398438 15.253906 29.488281 C 15.03125 29.582031 14.796875 29.609375 14.554688 29.570312 C 14.316406 29.527344 14.105469 29.429688 13.917969 29.269531 C 13.734375 29.109375 13.601562 28.910156 13.527344 28.675781 L 11.085938 21.238281 L 6.347656 18.832031 C 6.117188 18.714844 5.933594 18.542969 5.804688 18.316406 C 5.671875 18.089844 5.613281 17.84375 5.625 17.582031 C 5.636719 17.320312 5.71875 17.082031 5.871094 16.871094 C 6.019531 16.65625 6.214844 16.503906 6.457031 16.40625 L 29.964844 7.121094 C 30.191406 7.03125 30.425781 7.007812 30.667969 7.050781 C 30.90625 7.09375 31.117188 7.199219 31.300781 7.363281 C 31.484375 7.527344 31.613281 7.726562 31.683594 7.960938 C 31.757812 8.199219 31.765625 8.4375 31.707031 8.679688 L 26.480469 29.90625 C 26.410156 30.203125 26.253906 30.441406 26.019531 30.628906 C 25.78125 30.816406 25.515625 30.910156 25.214844 30.910156 Z M 19.625 22.027344 L 24.507812 26.988281 L 28.554688 10.523438 L 10.148438 17.796875 L 12.742188 19.109375 C 13.0625 19.273438 13.28125 19.53125 13.394531 19.878906 L 15.21875 25.4375 L 16.960938 23.074219 L 16.457031 22.5625 C 16.335938 22.4375 16.242188 22.292969 16.175781 22.132812 C 16.109375 21.96875 16.074219 21.800781 16.074219 21.625 C 16.074219 21.449219 16.109375 21.277344 16.175781 21.117188 C 16.242188 20.953125 16.335938 20.808594 16.457031 20.6875 L 21.679688 15.378906 C 21.804688 15.257812 21.945312 15.164062 22.105469 15.101562 C 22.261719 15.035156 22.429688 15.003906 22.601562 15.007812 C 22.769531 15.007812 22.9375 15.042969 23.09375 15.109375 C 23.25 15.175781 23.390625 15.273438 23.511719 15.394531 C 23.632812 15.519531 23.726562 15.660156 23.792969 15.820312 C 23.859375 15.980469 23.894531 16.148438 23.894531 16.320312 C 23.894531 16.496094 23.863281 16.664062 23.800781 16.824219 C 23.738281 16.988281 23.648438 17.128906 23.527344 17.253906 L 19.226562 21.625 L 19.59375 22 Z M 19.625 22.027344 " fill-opacity="1" fill-rule="nonzero"/></g></svg>