<?xml version="1.0" encoding="UTF-8" standalone="no"?>
<!DOCTYPE svg PUBLIC "-//W3C//DTD SVG 1.1//EN" "http://www.w3.org/Graphics/SVG/1.1/DTD/svg11.dtd">
<!-- Created with Vectornator (http://vectornator.io/) -->
<svg height="100%" stroke-miterlimit="10" style="fill-rule:nonzero;clip-rule:evenodd;stroke-linecap:round;stroke-linejoin:round;" version="1.1" viewBox="0 0 37.5 37.5" width="100%" xml:space="preserve" xmlns="http://www.w3.org/2000/svg" xmlns:vectornator="http://vectornator.io" xmlns:xlink="http://www.w3.org/1999/xlink">
<defs/>
<g id="Untitled" vectornator:layerName="Untitled">
<g opacity="1">
<clipPath id="ClipPath">
<path d="M7.5 7.5L30 7.5L30 30L7.5 30L7.5 7.5Z"/>
</clipPath>
<g clip-path="url(#ClipPath)">
<path d="M18.7461 9.52734C21.7461 9.52734 22.1016 9.53906 23.2891 9.59375C24.3867 9.64062 24.9805 9.82422 25.3789 9.98047C25.9023 10.1836 26.2773 10.4297 26.6719 10.8242C27.0664 11.2188 27.3086 11.5938 27.5156 12.1172C27.668 12.5117 27.8516 13.1094 27.9062 14.207C27.9609 15.3945 27.9688 15.75 27.9688 18.7539C27.9688 21.7539 27.9609 22.1094 27.9062 23.2969C27.8555 24.3906 27.6719 24.9883 27.5156 25.3867C27.3125 25.9102 27.0664 26.2852 26.6719 26.6797C26.2773 27.0742 25.9023 27.3164 25.3789 27.5234C24.9844 27.6758 24.3906 27.8594 23.2891 27.9141C22.1016 27.9648 21.7461 27.9766 18.7461 27.9766C15.7422 27.9766 15.3867 27.9648 14.1992 27.9141C13.1055 27.8633 12.5078 27.6797 12.1094 27.5234C11.5859 27.3203 11.2109 27.0742 10.8164 26.6797C10.4219 26.2852 10.1836 25.9102 9.97656 25.3867C9.82031 24.9922 9.64062 24.3984 9.58594 23.2969C9.53125 22.1094 9.51953 21.7539 9.51953 18.7539C9.51953 15.75 9.53125 15.3945 9.58594 14.207C9.63281 13.1133 9.81641 12.5156 9.97656 12.1172C10.1758 11.5938 10.4219 11.2188 10.8164 10.8242C11.2109 10.4297 11.5859 10.1875 12.1094 9.98047C12.5039 9.82812 13.1016 9.64844 14.1992 9.59375C15.3867 9.53906 15.7422 9.52734 18.7461 9.52734M18.7461 7.50391C15.6875 7.50391 15.3086 7.51562 14.1055 7.57031C12.9062 7.625 12.0898 7.81641 11.375 8.09375C10.6367 8.37891 10.0078 8.76562 9.38281 9.39062C8.76172 10.0156 8.37891 10.6445 8.08984 11.3828C7.81641 12.0977 7.625 12.9141 7.57031 14.1133C7.51562 15.3125 7.5 15.6953 7.5 18.7461C7.5 21.8047 7.51562 22.1836 7.57031 23.3867C7.625 24.5859 7.81641 25.4023 8.08984 26.1172C8.37891 26.8555 8.76172 27.4844 9.38672 28.1094C10.0156 28.7344 10.6406 29.1211 11.3789 29.4062C12.0938 29.6836 12.9141 29.875 14.1094 29.9297C15.3086 29.9844 15.6953 29.9961 18.75 29.9961C21.8047 29.9961 22.1875 29.9844 23.3906 29.9297C24.5859 29.875 25.4062 29.6836 26.1211 29.4062C26.8594 29.1211 27.4844 28.7344 28.1133 28.1094C28.7383 27.4844 29.1211 26.8555 29.4102 26.1172C29.6836 25.4023 29.875 24.5859 29.9297 23.3867C29.9844 22.1875 30 21.8047 30 18.7461C30 15.6914 29.9844 15.3125 29.9297 14.1094C29.875 12.9102 29.6836 12.0938 29.4102 11.3789C29.1211 10.6367 28.7383 10.0117 28.1133 9.38672C27.4844 8.75781 26.8594 8.375 26.1211 8.08984C25.4062 7.8125 24.5859 7.62109 23.3906 7.56641C22.1875 7.51562 21.8008 7.50391 18.7461 7.50391" fill="#9a8ada" fill-rule="nonzero" opacity="1" stroke="none"/>
</g>
</g>
<path d="M18.7461 12.9766C15.5547 12.9766 12.9727 15.5586 12.9727 18.7461C12.9727 21.9375 15.5586 24.5234 18.75 24.5234C21.9414 24.5234 24.5273 21.9414 24.5273 18.7461C24.5234 15.5586 21.9336 12.9766 18.7461 12.9766M18.7461 22.5C16.6758 22.5 15 20.8242 15 18.7539C15 16.6836 16.6758 15.0039 18.7461 15.0039C20.8164 15.0039 22.4922 16.6836 22.4922 18.7539C22.4961 20.8164 20.8164 22.5 18.7461 22.5" fill="#9a8ada" fill-rule="nonzero" opacity="1" stroke="none"/>
<path d="M26.1016 12.7461C26.1016 13.4922 25.4922 14.0977 24.75 14.0977C24.0039 14.0977 23.3984 13.4922 23.3984 12.7461C23.3984 12.0039 24.0039 11.3984 24.75 11.3984C25.4922 11.3984 26.1016 12 26.1016 12.7461" fill="#9a8ada" fill-rule="nonzero" opacity="1" stroke="none"/>
</g>
</svg>
