<?xml version="1.0" encoding="UTF-8" standalone="no"?>
<!DOCTYPE svg PUBLIC "-//W3C//DTD SVG 1.1//EN" "http://www.w3.org/Graphics/SVG/1.1/DTD/svg11.dtd">
<!-- Created with Vectornator (http://vectornator.io/) -->
<svg height="100%" stroke-miterlimit="10" style="fill-rule:nonzero;clip-rule:evenodd;stroke-linecap:round;stroke-linejoin:round;" version="1.1" viewBox="0 0 37.5 37.5" width="100%" xml:space="preserve" xmlns="http://www.w3.org/2000/svg" xmlns:vectornator="http://vectornator.io" xmlns:xlink="http://www.w3.org/1999/xlink">
<defs/>
<g id="Untitled" vectornator:layerName="Untitled">
<g opacity="1">
<clipPath id="ClipPath">
<path d="M5.625 7L31.875 7L31.875 30.9375L5.625 30.9375L5.625 7Z"/>
</clipPath>
<g clip-path="url(#ClipPath)">
<path d="M25.2148 30.9102C24.8555 30.9102 24.5469 30.7812 24.293 30.5234L18.8242 24.9688L15.8125 29.0547C15.6641 29.25 15.4805 29.3984 15.2539 29.4883C15.0312 29.582 14.7969 29.6094 14.5547 29.5703C14.3164 29.5273 14.1055 29.4297 13.918 29.2695C13.7344 29.1094 13.6016 28.9102 13.5273 28.6758L11.0859 21.2383L6.34766 18.832C6.11719 18.7148 5.93359 18.543 5.80469 18.3164C5.67188 18.0898 5.61328 17.8438 5.625 17.582C5.63672 17.3203 5.71875 17.082 5.87109 16.8711C6.01953 16.6562 6.21484 16.5039 6.45703 16.4062L29.9648 7.12109C30.1914 7.03125 30.4258 7.00781 30.668 7.05078C30.9062 7.09375 31.1172 7.19922 31.3008 7.36328C31.4844 7.52734 31.6133 7.72656 31.6836 7.96094C31.7578 8.19922 31.7656 8.4375 31.707 8.67969L26.4805 29.9062C26.4102 30.2031 26.2539 30.4414 26.0195 30.6289C25.7812 30.8164 25.5156 30.9102 25.2148 30.9102ZM19.625 22.0273L24.5078 26.9883L28.5547 10.5234L10.1484 17.7969L12.7422 19.1094C13.0625 19.2734 13.2812 19.5312 13.3945 19.8789L15.2188 25.4375L16.9609 23.0742L16.457 22.5625C16.3359 22.4375 16.2422 22.293 16.1758 22.1328C16.1094 21.9688 16.0742 21.8008 16.0742 21.625C16.0742 21.4492 16.1094 21.2773 16.1758 21.1172C16.2422 20.9531 16.3359 20.8086 16.457 20.6875L21.6797 15.3789C21.8047 15.2578 21.9453 15.1641 22.1055 15.1016C22.2617 15.0352 22.4297 15.0039 22.6016 15.0078C22.7695 15.0078 22.9375 15.043 23.0938 15.1094C23.25 15.1758 23.3906 15.2734 23.5117 15.3945C23.6328 15.5195 23.7266 15.6602 23.793 15.8203C23.8594 15.9805 23.8945 16.1484 23.8945 16.3203C23.8945 16.4961 23.8633 16.6641 23.8008 16.8242C23.7383 16.9883 23.6484 17.1289 23.5273 17.2539L19.2266 21.625L19.5938 22L19.625 22.0273Z" fill="#9a8ada" fill-rule="nonzero" opacity="1" stroke="none"/>
</g>
</g>
</g>
</svg>
