<svg xmlns="http://www.w3.org/2000/svg" xmlns:xlink="http://www.w3.org/1999/xlink" width="70" zoomAndPan="magnify" viewBox="0 0 52.5 52.499999" height="70" preserveAspectRatio="xMidYMid meet" version="1.0"><defs><clipPath id="11443c22f3"><path d="M 9.816406 24 L 42.816406 24 L 42.816406 40.949219 L 9.816406 40.949219 Z M 9.816406 24 " clip-rule="nonzero"/></clipPath><clipPath id="d0fb6940c3"><path d="M 14 11.699219 L 25 11.699219 L 25 23 L 14 23 Z M 14 11.699219 " clip-rule="nonzero"/></clipPath><clipPath id="01536bd667"><path d="M 27 11.699219 L 38 11.699219 L 38 23 L 27 23 Z M 27 11.699219 " clip-rule="nonzero"/></clipPath></defs><g clip-path="url(#11443c22f3)"><path fill="#b8afe0" d="M 9.78125 24.773438 L 9.78125 28.203125 C 9.78125 28.410156 9.855469 28.589844 10.003906 28.734375 C 10.148438 28.878906 10.324219 28.953125 10.53125 28.953125 L 12.113281 28.953125 L 14.882812 40.164062 C 14.921875 40.332031 15.011719 40.46875 15.144531 40.574219 C 15.28125 40.679688 15.433594 40.734375 15.609375 40.734375 L 36.949219 40.734375 C 37.121094 40.734375 37.273438 40.679688 37.410156 40.574219 C 37.542969 40.46875 37.632812 40.332031 37.671875 40.164062 L 40.441406 28.953125 L 42.023438 28.953125 C 42.230469 28.953125 42.40625 28.878906 42.550781 28.734375 C 42.699219 28.589844 42.773438 28.410156 42.773438 28.203125 L 42.773438 24.773438 C 42.773438 24.566406 42.699219 24.390625 42.550781 24.246094 C 42.40625 24.097656 42.230469 24.023438 42.023438 24.023438 L 10.53125 24.023438 C 10.324219 24.023438 10.148438 24.097656 10.003906 24.246094 C 9.855469 24.390625 9.78125 24.566406 9.78125 24.773438 Z M 21.894531 28.953125 L 21.894531 31.148438 L 18.582031 31.148438 L 18.582031 28.953125 Z M 26.699219 28.953125 L 26.699219 31.148438 L 23.390625 31.148438 L 23.390625 28.953125 Z M 31.503906 28.953125 L 31.503906 31.148438 L 28.195312 31.148438 L 28.195312 28.953125 Z M 35.617188 28.953125 L 35.617188 31.148438 L 33 31.148438 L 33 28.953125 Z M 37.214844 35.785156 C 37.207031 35.785156 37.203125 35.78125 37.199219 35.78125 L 37.113281 35.78125 L 37.113281 32.644531 L 37.988281 32.644531 Z M 14.566406 32.644531 L 17.085938 32.644531 L 17.085938 35.78125 L 15.339844 35.78125 Z M 18.582031 32.644531 L 21.894531 32.644531 L 21.894531 35.78125 L 18.582031 35.78125 Z M 26.699219 35.78125 L 23.390625 35.78125 L 23.390625 32.644531 L 26.699219 32.644531 Z M 28.195312 32.644531 L 31.503906 32.644531 L 31.503906 35.78125 L 28.195312 35.78125 Z M 21.894531 37.277344 L 21.894531 39.234375 L 18.582031 39.234375 L 18.582031 37.277344 Z M 23.390625 37.277344 L 26.699219 37.277344 L 26.699219 39.234375 L 23.390625 39.234375 Z M 28.195312 37.277344 L 31.503906 37.277344 L 31.503906 39.234375 L 28.195312 39.234375 Z M 33 37.277344 L 35.617188 37.277344 L 35.617188 39.234375 L 33 39.234375 Z M 35.617188 35.78125 L 33 35.78125 L 33 32.644531 L 35.617188 32.644531 Z M 17.085938 31.148438 L 14.195312 31.148438 L 13.652344 28.953125 L 17.085938 28.953125 Z M 15.710938 37.277344 L 17.085938 37.277344 L 17.085938 39.234375 L 16.191406 39.234375 Z M 38.359375 31.148438 L 37.113281 31.148438 L 37.113281 28.953125 L 38.902344 28.953125 Z M 11.28125 25.523438 L 41.273438 25.523438 L 41.273438 27.457031 L 11.28125 27.457031 Z M 11.28125 25.523438 " fill-opacity="1" fill-rule="nonzero"/></g><g clip-path="url(#d0fb6940c3)"><path fill="#b8afe0" d="M 23.589844 12.214844 L 15.050781 21.082031 C 14.910156 21.230469 14.839844 21.410156 14.84375 21.617188 C 14.847656 21.824219 14.921875 22 15.070312 22.140625 C 15.222656 22.285156 15.398438 22.355469 15.605469 22.351562 C 15.8125 22.347656 15.988281 22.269531 16.128906 22.121094 L 24.667969 13.253906 C 24.808594 13.105469 24.878906 12.925781 24.875 12.722656 C 24.871094 12.515625 24.792969 12.339844 24.644531 12.195312 C 24.496094 12.054688 24.320312 11.984375 24.113281 11.988281 C 23.90625 11.992188 23.730469 12.066406 23.589844 12.214844 Z M 23.589844 12.214844 " fill-opacity="1" fill-rule="nonzero"/></g><g clip-path="url(#01536bd667)"><path fill="#b8afe0" d="M 27.742188 12.195312 C 27.59375 12.339844 27.515625 12.515625 27.511719 12.722656 C 27.507812 12.929688 27.578125 13.105469 27.722656 13.253906 L 36.257812 22.121094 C 36.402344 22.269531 36.574219 22.347656 36.78125 22.351562 C 36.988281 22.355469 37.164062 22.285156 37.3125 22.140625 C 37.460938 21.996094 37.539062 21.820312 37.542969 21.617188 C 37.546875 21.410156 37.476562 21.230469 37.335938 21.082031 L 28.800781 12.214844 C 28.65625 12.066406 28.480469 11.988281 28.273438 11.984375 C 28.066406 11.984375 27.890625 12.050781 27.742188 12.195312 Z M 27.742188 12.195312 " fill-opacity="1" fill-rule="nonzero"/></g></svg>