<svg xmlns="http://www.w3.org/2000/svg" xmlns:xlink="http://www.w3.org/1999/xlink" width="70" zoomAndPan="magnify" viewBox="0 0 52.5 52.499999" height="70" preserveAspectRatio="xMidYMid meet" version="1.0"><defs><clipPath id="bdc22a4b2f"><path d="M 17.703125 3.425781 L 46.265625 3.425781 L 46.265625 49.175781 L 17.703125 49.175781 Z M 17.703125 3.425781 " clip-rule="nonzero"/></clipPath><clipPath id="36e7c1065e"><path d="M 6.023438 12 L 27 12 L 27 30 L 6.023438 30 Z M 6.023438 12 " clip-rule="nonzero"/></clipPath></defs><g clip-path="url(#bdc22a4b2f)"><path fill="#b9afe0" d="M 17.703125 7.960938 L 20.5625 10.820312 L 20.5625 6.285156 L 40.554688 6.285156 L 29.128906 12.003906 L 29.128906 37.738281 L 20.5625 37.738281 L 20.5625 30.347656 L 17.703125 33.207031 L 17.703125 40.597656 L 29.128906 40.597656 L 29.128906 49.175781 L 46.265625 40.597656 L 46.265625 3.425781 L 17.703125 3.425781 L 17.703125 7.960938 " fill-opacity="1" fill-rule="nonzero"/></g><g clip-path="url(#36e7c1065e)"><path fill="#b9afe0" d="M 26.273438 20.582031 L 17.703125 12.003906 L 17.703125 17.722656 L 6.28125 17.722656 L 6.28125 23.441406 L 17.703125 23.441406 L 17.703125 29.160156 L 26.273438 20.582031 " fill-opacity="1" fill-rule="nonzero"/></g></svg>