<?xml version="1.0" encoding="UTF-8" standalone="no"?>
<!DOCTYPE svg PUBLIC "-//W3C//DTD SVG 1.1//EN" "http://www.w3.org/Graphics/SVG/1.1/DTD/svg11.dtd">
<!-- Created with Vectornator (http://vectornator.io/) -->
<svg height="100%" stroke-miterlimit="10" style="fill-rule:nonzero;clip-rule:evenodd;stroke-linecap:round;stroke-linejoin:round;" version="1.1" viewBox="0 0 52.5 52.5" width="100%" xml:space="preserve" xmlns="http://www.w3.org/2000/svg" xmlns:vectornator="http://vectornator.io" xmlns:xlink="http://www.w3.org/1999/xlink">
<defs/>
<g id="Untitled" vectornator:layerName="Untitled">
<g opacity="1">
<clipPath id="ClipPath">
<path d="M5.28714 9.74898L47.9781 9.74898L47.9781 44.1065L5.28714 44.1065L5.28714 9.74898Z"/>
</clipPath>
<g clip-path="url(#ClipPath)">
<path d="M45.728 20.2307C45.9447 20.0031 45.9447 19.6332 45.728 19.4055C45.5151 19.1779 45.1691 19.1779 44.9524 19.4055L35.8852 29.0234L28.1601 20.8324C28.1562 20.8283 28.1562 20.8283 28.1524 20.8242C28.1448 20.8161 28.1372 20.808 28.1296 20.7998C28.122 20.7958 28.1182 20.7917 28.1106 20.7876C28.103 20.7795 28.0954 20.7754 28.0878 20.7673C28.0802 20.7633 28.0726 20.7592 28.0688 20.7511C28.0612 20.747 28.0536 20.7429 28.046 20.7389C28.0384 20.7348 28.027 20.7267 28.0194 20.7226C28.0118 20.7185 28.008 20.7185 28.0004 20.7145C27.989 20.7104 27.9814 20.7063 27.97 20.7023C27.9662 20.6982 27.9586 20.6941 27.951 20.6941C27.9434 20.6901 27.9319 20.686 27.9205 20.682C27.9129 20.682 27.9053 20.6779 27.8977 20.6779C27.8901 20.6738 27.8787 20.6738 27.8711 20.6698C27.8635 20.6698 27.8521 20.6698 27.8445 20.6657C27.8369 20.6657 27.8293 20.6657 27.8179 20.6616C27.8103 20.6616 27.7989 20.6616 27.7875 20.6616C27.7799 20.6616 27.7723 20.6616 27.7685 20.6616C27.7571 20.6616 27.7457 20.6616 27.7343 20.6616C27.7266 20.6616 27.7228 20.6616 27.7152 20.6657C27.7038 20.6657 27.6924 20.6657 27.681 20.6698C27.6734 20.6698 27.6696 20.6698 27.662 20.6738C27.6506 20.6738 27.643 20.6779 27.6316 20.682C27.624 20.682 27.6164 20.686 27.6088 20.686C27.6012 20.6901 27.5936 20.6941 27.586 20.6941C27.5746 20.6982 27.567 20.7023 27.5556 20.7063C27.5518 20.7104 27.5442 20.7145 27.5366 20.7185C27.5252 20.7226 27.5176 20.7267 27.5061 20.7348C27.5023 20.7348 27.5023 20.7348 27.4985 20.7348L24.6472 22.4584C23.8336 22.9055 22.9098 22.9787 22.043 22.6616C21.3055 22.3933 20.6972 21.873 20.298 21.1779C20.9253 20.6332 22.4612 19.4055 24.708 18.2673C25.3163 17.9584 26.0006 17.869 26.6926 17.9096C26.7154 17.9137 26.742 17.9177 26.7648 17.9177C26.7686 17.9177 26.7686 17.9177 26.7724 17.9177C28.8558 18.0722 30.9353 19.3933 30.962 19.4096C31.1787 19.5519 31.4638 19.5112 31.6387 19.3161L38.1701 12.2023C38.383 11.9706 38.3754 11.6007 38.1587 11.3771C37.942 11.1535 37.596 11.1576 37.3831 11.3893L31.1482 18.186C30.4069 17.7633 28.7075 16.9137 26.9093 16.7633C23.5713 15.0356 20.1003 15.9299 19.013 16.2877L15.5914 12.6576C15.3747 12.43 15.0288 12.43 14.8121 12.6576C14.5992 12.8852 14.5992 13.2552 14.8121 13.4828L18.477 17.3649C18.629 17.5275 18.8571 17.5803 19.0586 17.499C19.089 17.4868 21.6286 16.499 24.4647 17.1088C24.3887 17.1413 24.3089 17.1779 24.2328 17.2145C21.0888 18.808 19.3095 20.5356 19.2335 20.6088C19.0586 20.7795 19.0092 21.0478 19.1081 21.2795C19.6137 22.4584 20.5299 23.3445 21.6894 23.7632C22.1609 23.938 22.6437 24.0234 23.1265 24.0234C23.826 24.0234 24.5218 23.8405 25.1643 23.4828C25.1719 23.4828 25.1757 23.4787 25.1833 23.4746L27.6772 21.9665L36.3072 31.1209L38.0941 33.0152C38.3298 33.2673 38.4628 33.6047 38.4628 33.9624C38.4628 34.3201 38.3298 34.6575 38.0941 34.9136L37.1968 35.8607L35.0565 33.5925L34.5166 33.0193C34.3037 32.7917 33.9539 32.7917 33.741 33.0193C33.5281 33.2469 33.5281 33.6169 33.741 33.8445L36.6076 36.8811C37.1018 37.4054 37.1018 38.2591 36.6076 38.7794C36.3681 39.0355 36.0487 39.1737 35.7104 39.1737C35.372 39.1737 35.0565 39.0355 34.8169 38.7794L34.2771 38.2063L31.2281 34.9786C31.0152 34.751 30.6692 34.751 30.4525 34.9786C30.2396 35.2063 30.2396 35.5721 30.4525 35.7998L33.4977 39.0315C33.992 39.5558 33.992 40.4054 33.4977 40.9298C33.0073 41.4542 32.2013 41.4542 31.7109 40.9298L28.6619 37.6981L27.9434 36.9339C27.7266 36.7063 27.3807 36.7063 27.1678 36.9339C26.9511 37.1615 26.9511 37.5315 27.1678 37.7591L28.8786 39.5721C29.3728 40.0965 29.3424 40.9827 28.8102 41.5436C28.2779 42.1087 27.4453 42.1412 26.9511 41.6168L26.0577 40.6656L26.4683 40.2306C26.9017 39.7713 27.1412 39.1615 27.1412 38.5111C27.1412 37.8607 26.9017 37.251 26.4683 36.7916L26.3656 36.6819C25.9018 36.19 25.2897 35.9542 24.6776 35.9746C24.7917 35.6859 24.8525 35.3689 24.8525 35.0437C24.8525 34.3973 24.613 33.7876 24.1796 33.3282L24.077 33.2185C23.693 32.812 23.1987 32.564 22.6627 32.5152C22.7235 32.2957 22.7577 32.0599 22.7577 31.8242C22.7577 31.1738 22.5182 30.564 22.0848 30.1047L21.9822 29.9949C21.5488 29.5356 20.9747 29.2835 20.3626 29.2835C20.1383 29.2835 19.9178 29.3161 19.7087 29.3852C19.6631 28.8161 19.4312 28.2917 19.0472 27.8811L18.9446 27.7714C18.5112 27.3161 17.9371 27.06 17.325 27.06C16.7129 27.06 16.1389 27.3161 15.7055 27.7714L14.8045 28.7307L7.56589 21.0559C7.35299 20.8283 7.00323 20.8283 6.79033 21.0559C6.57743 21.2836 6.57743 21.6494 6.79033 21.8771L14.0251 29.5518L13.4168 30.2022C12.5234 31.1494 12.5234 32.69 13.4168 33.6372L14.7512 35.0518C14.7778 35.0803 14.8083 35.1087 14.8387 35.129C14.8387 35.1331 14.8387 35.1372 14.8387 35.1412C14.8387 35.7916 15.0782 36.4014 15.5116 36.8607C15.9868 37.3648 16.6103 37.6168 17.2338 37.6168C17.4543 37.6168 17.671 37.5843 17.8839 37.5233C17.9181 38.1128 18.1538 38.6615 18.5492 39.0802L18.7469 39.2916C19.1651 39.7347 19.7201 39.9583 20.2714 39.9583C20.4729 39.9583 20.6706 39.9298 20.8645 39.8729C20.8569 39.9461 20.8531 40.0233 20.8531 40.1006C20.8531 40.7469 21.0926 41.3566 21.526 41.816L21.6286 41.9258C22.0772 42.4014 22.6627 42.6371 23.2482 42.6371C23.8336 42.6371 24.4229 42.4014 24.8677 41.9258L25.2821 41.4908L26.1755 42.4379C26.6241 42.9136 27.2172 43.1534 27.8179 43.1534C28.4528 43.1534 29.0953 42.8892 29.5857 42.3688C29.9431 41.9908 30.1712 41.5314 30.27 41.0477L30.9315 41.755C31.3954 42.2428 31.9998 42.4867 32.6043 42.4867C33.2088 42.4867 33.8133 42.2428 34.2771 41.755C34.6839 41.3241 34.9082 40.7713 34.9576 40.2062C35.2009 40.2957 35.4556 40.3363 35.7104 40.3363C36.3186 40.3363 36.9231 40.0924 37.3831 39.6046C38.0979 38.8485 38.2575 37.7225 37.866 36.7998L38.8696 35.7347C39.7896 34.7591 39.7896 33.1656 38.8696 32.19L37.0828 30.2957L36.6608 29.8486L45.728 20.2307ZM13.8594 32.8246C13.3828 32.3235 13.3828 31.5078 13.8594 31.0026L16.2109 28.5305C16.4414 28.2862 16.75 28.1537 17.0781 28.1537C17.4062 28.1537 17.7109 28.2862 17.9453 28.5305L18.0508 28.6423C18.2812 28.8866 18.4102 29.2096 18.4102 29.5533C18.4102 29.897 18.2812 30.22 18.0508 30.4643L14.832 33.8474L13.8594 32.8246ZM16.0117 36.1083C15.7812 35.864 15.6523 35.541 15.6523 35.1973C15.6523 34.8536 15.7812 34.5306 16.0117 34.2863L17.8477 32.3567L18.8477 31.3049L19.332 30.7955C19.5625 30.5512 19.8711 30.4187 20.1992 30.4187C20.5273 30.4187 20.8359 30.5512 21.0664 30.7955L21.1719 30.9073C21.4023 31.1517 21.5312 31.4747 21.5312 31.8183C21.5312 32.162 21.4023 32.485 21.1719 32.7293L17.957 36.1083C17.4219 36.6715 16.5469 36.6715 16.0117 36.1083ZM19.3359 38.5845L19.1328 38.3734C18.9023 38.129 18.7734 37.8061 18.7734 37.4624C18.7734 37.1187 18.9023 36.7915 19.1328 36.5514L20.332 35.2884L21.4844 34.0751C21.7188 33.835 22.0234 33.6983 22.3516 33.6983C22.6797 33.6983 22.9883 33.835 23.2188 34.0751L23.3242 34.1869C23.5547 34.4312 23.6836 34.7542 23.6836 35.1021C23.6836 35.4458 23.5547 35.7687 23.3242 36.0131L20.8789 38.5845C20.4531 39.0318 19.7617 39.0318 19.3359 38.5845ZM22.2969 41.272L22.1914 41.1602C21.9609 40.9159 21.832 40.5929 21.832 40.2492C21.832 39.9055 21.9609 39.5784 22.1914 39.3382L23.8359 37.6073C24.0742 37.3547 24.3906 37.2305 24.7031 37.2305C25.0156 37.2305 25.332 37.3547 25.5703 37.6073L25.6758 37.7191C25.9062 37.9634 26.0352 38.2864 26.0352 38.6301C26.0352 38.9738 25.9062 39.2968 25.6758 39.5411L24.8555 40.4065L24.8516 40.4065L24.0312 41.272C23.5547 41.773 22.7773 41.773 22.2969 41.272Z" fill="#9a8ada" fill-rule="nonzero" opacity="1" stroke="#9a8ada" stroke-linecap="butt" stroke-linejoin="round" stroke-width="1.23516"/>
</g>
</g>
</g>
</svg>
