<?xml version="1.0" encoding="UTF-8" standalone="no"?>
<!DOCTYPE svg PUBLIC "-//W3C//DTD SVG 1.1//EN" "http://www.w3.org/Graphics/SVG/1.1/DTD/svg11.dtd">
<!-- Created with Vectornator (http://vectornator.io/) -->
<svg height="100%" stroke-miterlimit="10" style="fill-rule:nonzero;clip-rule:evenodd;stroke-linecap:round;stroke-linejoin:round;" version="1.1" viewBox="0 0 52.5 52.5" width="100%" xml:space="preserve" xmlns="http://www.w3.org/2000/svg" xmlns:vectornator="http://vectornator.io" xmlns:xlink="http://www.w3.org/1999/xlink">
<defs/>
<g id="Untitled" vectornator:layerName="Untitled">
<g opacity="1">
<clipPath id="ClipPath">
<path d="M8 8L45.1719 8L45.1719 44.5234L8 44.5234L8 8Z"/>
</clipPath>
<g clip-path="url(#ClipPath)">
<path d="M36.5708 12.4755C35.8251 12.4755 35.1015 12.5885 34.3927 12.8182C34.2671 12.5659 34.1268 12.3248 33.9718 12.0875C33.8204 11.854 33.6506 11.628 33.4734 11.4133C33.2925 11.1986 33.1005 10.9951 32.8938 10.803C32.6907 10.6109 32.4766 10.4301 32.2514 10.2644C32.0262 10.0987 31.7899 9.94423 31.5463 9.80863C31.3026 9.66926 31.0516 9.54496 30.7931 9.43572C30.5384 9.32649 30.2726 9.23232 30.0031 9.15698C29.7336 9.07788 29.4641 9.01762 29.1872 8.97242C28.9103 8.92722 28.6334 8.90085 28.3528 8.88578C28.0723 8.87448 27.7954 8.87825 27.5148 8.90085C27.2379 8.92345 26.961 8.96112 26.6841 9.01385C26.4109 9.07035 26.1414 9.13815 25.8756 9.22479C25.6061 9.31142 25.3477 9.41312 25.093 9.52989C24.8382 9.64666 24.5909 9.7785 24.3546 9.9254C24.1146 10.0723 23.8857 10.2343 23.6642 10.4075C23.4464 10.5808 23.236 10.7691 23.0403 10.965L11.1083 22.9583C10.7871 23.2897 10.4992 23.6513 10.2444 24.0393C9.9934 24.4273 9.77927 24.8379 9.60945 25.2673C9.43593 25.6967 9.30672 26.1411 9.21811 26.5969C9.1332 27.0527 9.0889 27.5122 9.09259 27.9755C9.09628 28.4426 9.14428 28.9022 9.23657 29.3542C9.32887 29.8099 9.46177 30.2506 9.63898 30.68C9.81988 31.1095 10.0377 31.5163 10.2924 31.9005C10.5509 32.2847 10.8425 32.6425 11.1674 32.9702C11.496 33.2979 11.8504 33.5917 12.2343 33.8516C12.6183 34.1115 13.0207 34.33 13.4489 34.507C13.8735 34.6878 14.3128 34.8234 14.7669 34.9138C15.2173 35.008 15.6751 35.0532 16.1366 35.057C16.5981 35.0607 17.0559 35.0193 17.5099 34.9327C17.964 34.8423 18.4034 34.7142 18.8316 34.5409C19.2599 34.3639 19.6697 34.153 20.0536 33.8968C20.4413 33.6445 20.7994 33.3544 21.1316 33.0305L29.4751 24.6345L29.4751 36.5599C29.4751 37.027 29.5194 37.4903 29.6117 37.9498C29.704 38.4094 29.8369 38.8576 30.0142 39.287C30.1914 39.7202 30.4129 40.1308 30.6713 40.5225C30.9297 40.9105 31.2214 41.2721 31.55 41.6035C31.8822 41.935 32.2403 42.2288 32.628 42.4887C33.0119 42.7486 33.4217 42.9709 33.8537 43.1479C34.2819 43.3287 34.7249 43.4643 35.1827 43.5547C35.6405 43.6451 36.102 43.6903 36.5671 43.6903C37.0323 43.6903 37.4938 43.6451 37.9516 43.5547C38.4057 43.4643 38.8524 43.3287 39.2806 43.1479C39.7126 42.9709 40.1187 42.7486 40.5063 42.4887C40.894 42.2288 41.2521 41.935 41.5806 41.6035C41.9129 41.2721 42.2046 40.9105 42.463 40.5225C42.7214 40.1308 42.9392 39.7202 43.1201 39.287C43.2973 38.8576 43.4302 38.4094 43.5225 37.9498C43.6111 37.4903 43.6591 37.027 43.6591 36.5599L43.6591 19.5983C43.6554 19.1313 43.6111 18.668 43.5188 18.2122C43.4302 17.7526 43.2936 17.3082 43.1164 16.875C42.9392 16.4418 42.7177 16.0313 42.4593 15.6433C42.2009 15.2553 41.9092 14.8937 41.5806 14.566C41.2521 14.2345 40.894 13.937 40.5063 13.6771C40.1187 13.4172 39.7126 13.1987 39.2806 13.0216C38.8524 12.8408 38.4094 12.7052 37.9516 12.6148C37.4975 12.5207 37.036 12.4755 36.5708 12.4755ZM24.0814 12.0122C24.3435 11.7598 24.6278 11.5376 24.9342 11.3417C25.2369 11.1458 25.5581 10.9838 25.8978 10.8482C26.2337 10.7164 26.5808 10.6185 26.9389 10.5507C27.2933 10.4866 27.6551 10.4565 28.0169 10.4603C28.3787 10.4678 28.7368 10.5055 29.0912 10.5808C29.4456 10.6561 29.789 10.7616 30.1249 10.9047C30.4572 11.0441 30.7747 11.2174 31.0774 11.4208C31.3764 11.6242 31.657 11.854 31.9118 12.1101C32.1665 12.37 32.3991 12.6487 32.5984 12.9501C32.8015 13.2514 32.975 13.5716 33.1153 13.9068C33.2556 14.2421 33.3626 14.5886 33.4365 14.9464C33.514 15.3005 33.5509 15.6621 33.5583 16.0275C33.562 16.3891 33.5325 16.7507 33.466 17.1123C33.4032 17.4701 33.3036 17.8167 33.1744 18.1557C33.0414 18.4947 32.879 18.8186 32.6833 19.1275C32.4914 19.4364 32.2699 19.7226 32.0188 19.9863L26.3777 25.6628L18.4366 17.6811L24.0814 12.0122ZM20.0831 31.9833C19.821 32.2357 19.5368 32.4579 19.2303 32.6538C18.9239 32.8497 18.6027 33.0116 18.2631 33.1435C17.9271 33.2753 17.5801 33.377 17.222 33.4411C16.8676 33.5051 16.5058 33.5352 16.144 33.5315C15.7822 33.5239 15.4241 33.4863 15.0697 33.4109C14.7152 33.3356 14.3719 33.2264 14.0359 33.087C13.7037 32.9438 13.3862 32.7706 13.0871 32.5672C12.7844 32.3638 12.5075 32.134 12.2491 31.8779C11.9944 31.618 11.7655 31.3392 11.5624 31.0379C11.3631 30.7328 11.1895 30.4164 11.0493 30.0811C10.909 29.7421 10.8019 29.3994 10.7281 29.0415C10.6542 28.6837 10.6136 28.3258 10.6099 27.9605C10.6025 27.5951 10.6358 27.2335 10.6985 26.8757C10.765 26.5178 10.8647 26.1675 10.9939 25.8285C11.1268 25.4895 11.2892 25.1693 11.4849 24.8605C11.6806 24.5516 11.9021 24.2653 12.1494 24.0016L17.3955 18.7282L25.3329 26.7099L20.0831 31.9833ZM40.5248 40.5489C40.1334 40.9444 39.6941 41.2721 39.2031 41.532C38.7158 41.7956 38.1989 41.9802 37.6525 42.0895C37.1098 42.1987 36.5634 42.2251 36.0097 42.1686C35.4596 42.1158 34.928 41.9802 34.4148 41.7655C33.9016 41.5546 33.4328 41.2683 33.0008 40.9142C32.5726 40.5639 32.2071 40.1534 31.897 39.69C31.5869 39.2267 31.3543 38.7295 31.1918 38.1947C31.0294 37.6636 30.9482 37.1174 30.9482 36.5599L30.9482 29.1018L42.1824 29.1018L42.1824 36.5599C42.1861 37.3095 42.0458 38.0289 41.7578 38.722C41.4736 39.4113 41.0675 40.0215 40.5395 40.5489L40.5248 40.5489ZM42.1824 27.6215L30.9482 27.6215L30.9482 23.1541L33.0525 21.0372C33.7207 20.3705 34.2339 19.6021 34.592 18.7282C34.9538 17.8544 35.131 16.9466 35.1273 16.0011C35.1273 15.3947 35.0535 14.7958 34.9021 14.2082C35.4448 14.0387 35.9949 13.9558 36.5598 13.9558C36.9289 13.9558 37.2944 13.9935 37.6562 14.065C38.018 14.1366 38.3688 14.2421 38.7121 14.3852C39.0517 14.5283 39.3766 14.7016 39.683 14.905C39.9895 15.1122 40.2737 15.3457 40.5359 15.6094C40.798 15.8693 41.0306 16.1556 41.2336 16.4644C41.4403 16.7733 41.6139 17.0972 41.7542 17.44C41.8944 17.7828 42.0015 18.1331 42.0753 18.4985C42.1492 18.8638 42.1824 19.2292 42.1824 19.5983L42.1824 27.6215Z" fill="#9a8ada" fill-rule="nonzero" opacity="1" stroke="#9a8ada" stroke-linecap="butt" stroke-linejoin="round" stroke-width="1.2"/>
</g>
</g>
</g>
</svg>
