<?xml version="1.0" encoding="UTF-8" standalone="no"?>
<!DOCTYPE svg PUBLIC "-//W3C//DTD SVG 1.1//EN" "http://www.w3.org/Graphics/SVG/1.1/DTD/svg11.dtd">
<!-- Created with Vectornator (http://vectornator.io/) -->
<svg height="100%" stroke-miterlimit="10" style="fill-rule:nonzero;clip-rule:evenodd;stroke-linecap:round;stroke-linejoin:round;" version="1.1" viewBox="0 0 52.5 52.5" width="100%" xml:space="preserve" xmlns="http://www.w3.org/2000/svg" xmlns:vectornator="http://vectornator.io" xmlns:xlink="http://www.w3.org/1999/xlink">
<defs/>
<g id="Untitled" vectornator:layerName="Untitled">
<g opacity="1">
<clipPath id="ClipPath">
<path d="M15.4908 6.22365L47.2715 6.22365L47.2715 36.1454L15.4908 36.1454L15.4908 6.22365Z"/>
</clipPath>
<g clip-path="url(#ClipPath)">
<path d="M34.1829 10.527C34.1829 9.20234 33.1691 8.12199 31.9266 8.12199L20.9346 8.12199C19.6921 8.12199 18.6821 9.20234 18.6821 10.527L18.6821 14.7072C18.6821 15.3142 19.17 15.8028 19.7722 15.8028C20.3744 15.8028 20.8622 15.3142 20.8622 14.7072L20.8622 10.527C20.8622 10.401 20.9194 10.3285 20.9461 10.3094L31.9152 10.3094C31.9418 10.3285 31.999 10.401 31.999 10.527L31.999 19.7769C31.999 20.38 32.4869 20.8687 33.0891 20.8687L42.324 20.8687C42.4497 20.8687 42.526 20.9259 42.545 20.9527L42.545 31.9395C42.526 31.9662 42.4497 32.0235 42.324 32.0235L28.4773 32.0235C27.8751 32.0235 27.3835 32.5121 27.3835 33.1153C27.3835 33.7223 27.8751 34.2109 28.4773 34.2109L42.324 34.2109C43.6503 34.2109 44.7251 33.1954 44.7251 31.9509L44.7251 20.9412C44.7251 19.6967 43.6503 18.6851 42.324 18.6851L34.1829 18.6851L34.1829 10.527" fill="#9a8ada" fill-rule="nonzero" opacity="1" stroke="#9a8ada" stroke-linecap="butt" stroke-linejoin="round" stroke-width="1.23516"/>
</g>
</g>
<g opacity="1">
<clipPath id="ClipPath_2">
<path d="M5.58207 16.5862L36.1425 16.5862L36.1425 45.8431L5.58207 45.8431L5.58207 16.5862Z"/>
</clipPath>
<g clip-path="url(#ClipPath_2)">
<path d="M18.0912 41.8542C18.0912 43.1791 19.0984 44.2527 20.3375 44.2527L31.2991 44.2527C32.5382 44.2527 33.5492 43.1791 33.5492 41.8542L33.5492 37.6852C33.5492 37.0837 33.0627 36.5964 32.4583 36.5964C31.8578 36.5964 31.3713 37.0837 31.3713 37.6852L31.3713 41.8542C31.3713 41.9798 31.3143 42.0559 31.2877 42.075L20.3489 42.075C20.3223 42.0559 20.2652 41.9798 20.2652 41.8542L20.2652 32.6293C20.2652 32.0277 19.7787 31.5404 19.1782 31.5404L9.96875 31.5404C9.84332 31.5404 9.77111 31.4833 9.7521 31.4566L9.7521 20.4995C9.77111 20.4728 9.84332 20.4157 9.96875 20.4157L23.781 20.4157C24.3816 20.4157 24.8681 19.9284 24.8681 19.3268C24.8681 18.7253 24.3816 18.238 23.781 18.238L9.96875 18.238C8.64986 18.238 7.57422 19.2469 7.57422 20.488L7.57422 31.4681C7.57422 32.7092 8.64986 33.7219 9.96875 33.7219L18.0912 33.7219L18.0912 41.8542" fill="#9a8ada" fill-rule="nonzero" opacity="1" stroke="#9a8ada" stroke-linecap="butt" stroke-linejoin="round" stroke-width="1.23516"/>
</g>
</g>
</g>
</svg>
