<?xml version="1.0" encoding="UTF-8" standalone="no"?>
<!DOCTYPE svg PUBLIC "-//W3C//DTD SVG 1.1//EN" "http://www.w3.org/Graphics/SVG/1.1/DTD/svg11.dtd">
<!-- Created with Vectornator (http://vectornator.io/) -->
<svg height="100%" stroke-miterlimit="10" style="fill-rule:nonzero;clip-rule:evenodd;stroke-linecap:round;stroke-linejoin:round;" version="1.1" viewBox="0 0 52.5 52.5" width="100%" xml:space="preserve" xmlns="http://www.w3.org/2000/svg" xmlns:vectornator="http://vectornator.io" xmlns:xlink="http://www.w3.org/1999/xlink">
<defs/>
<g id="Untitled" vectornator:layerName="Untitled">
<g opacity="1">
<clipPath id="ClipPath">
<path d="M5.45238 5.14359L50.2181 5.14359L50.2181 47.2456L5.45238 47.2456L5.45238 5.14359Z"/>
</clipPath>
<g clip-path="url(#ClipPath)">
<path d="M19.7068 18.5024C19.7225 18.5221 19.7343 18.538 19.7499 18.5538L27.1158 26.1086C27.2294 26.2232 27.3704 26.2904 27.5193 26.3023C27.5428 26.3062 27.5624 26.3062 27.5859 26.3062C27.5938 26.3062 27.5977 26.3062 27.6055 26.3062C27.774 26.2983 27.9307 26.2272 28.0483 26.1086L35.4141 18.5538C35.4298 18.538 35.4415 18.5221 35.4572 18.5063L36.7541 17.1748C39.0383 14.8316 39.0383 11.0147 36.7541 8.6676C34.4659 6.32448 30.7478 6.32448 28.4596 8.6676L27.582 9.5685L26.7044 8.6676C24.4163 6.32448 20.6981 6.32448 18.4139 8.6676C16.1258 11.0147 16.1258 14.8316 18.4139 17.1748L19.7068 18.5024ZM19.3385 9.61987C20.2005 8.73873 21.3406 8.25272 22.5591 8.25272C23.7737 8.25272 24.9178 8.73873 25.7758 9.61987L27.1197 10.9949C27.2411 11.1214 27.4096 11.1925 27.582 11.1925C27.7583 11.1925 27.9229 11.1214 28.0443 10.9949L29.3882 9.61987C30.2463 8.73873 31.3903 8.25272 32.6049 8.25272C33.8234 8.25272 34.9674 8.73873 35.8255 9.61987C37.6003 11.4414 37.6003 14.4049 35.8255 16.2264L34.4855 17.6015C34.4699 17.6173 34.4542 17.6331 34.4424 17.6489L27.582 24.6862L20.7255 17.6489C20.7098 17.6331 20.6942 17.6173 20.6785 17.6015L19.3385 16.2264C17.5637 14.4049 17.5637 11.4414 19.3385 9.61987ZM48.367 25.2354C47.1877 24.0224 45.4089 23.6391 43.8613 24.2357C43.3872 24.054 42.8818 23.9552 42.3607 23.9552C41.2363 23.9552 40.1745 24.4017 39.3752 25.2157L34.4973 29.4514C34.5012 29.3961 34.5012 29.3448 34.5012 29.2894C34.5012 28.918 34.2113 28.6177 33.8469 28.6177L18.7978 28.6177C16.6469 28.6177 14.6252 29.4752 13.105 31.0359L6.79701 37.5042C6.54233 37.7689 6.54233 38.1917 6.79701 38.4565C6.9263 38.5869 7.09477 38.654 7.26325 38.654C7.4278 38.654 7.59628 38.5869 7.72557 38.4565L14.0296 31.9882C15.303 30.6803 16.9956 29.9612 18.7978 29.9612L33.1142 29.9612C32.8204 31.2216 31.7116 32.1581 30.3991 32.1581L22.3828 32.1581C22.0224 32.1581 21.7285 32.4584 21.7285 32.8298C21.7285 33.2012 22.0224 33.5015 22.3828 33.5015L30.3991 33.5015C31.5588 33.5015 32.6049 33.0037 33.3532 32.2055L40.2411 26.2232C40.2567 26.2114 40.2685 26.1995 40.2803 26.1837C41.2676 25.1722 42.7917 25.0299 43.9279 25.7649L33.4982 36.4611C32.5304 37.4568 31.2414 38.0021 29.8701 38.0021L19.5932 38.0021C18.3982 38.0021 17.2737 38.4802 16.4275 39.3495L11.2792 44.6284C11.0245 44.8892 11.0245 45.3159 11.2792 45.5767C11.4085 45.7111 11.577 45.7743 11.7454 45.7743C11.91 45.7743 12.0785 45.7111 12.2078 45.5767L17.3521 40.2978C17.9516 39.6853 18.7469 39.3455 19.5932 39.3455L32.8674 39.3455C34.5874 39.3455 36.2055 38.658 37.424 37.4133L48.367 26.1837C48.6217 25.9229 48.6217 25.4962 48.367 25.2354Z" fill="#9a8ada" fill-rule="nonzero" opacity="1" stroke="#9a8ada" stroke-linecap="butt" stroke-linejoin="round" stroke-width="1.23516"/>
</g>
</g>
</g>
</svg>
