<?xml version="1.0" encoding="UTF-8" standalone="no"?>
<!DOCTYPE svg PUBLIC "-//W3C//DTD SVG 1.1//EN" "http://www.w3.org/Graphics/SVG/1.1/DTD/svg11.dtd">
<!-- Created with Vectornator (http://vectornator.io/) -->
<svg height="100%" stroke-miterlimit="10" style="fill-rule:nonzero;clip-rule:evenodd;stroke-linecap:round;stroke-linejoin:round;" version="1.1" viewBox="0 0 63 63" width="100%" xml:space="preserve" xmlns="http://www.w3.org/2000/svg" xmlns:xlink="http://www.w3.org/1999/xlink">
<defs/>
<g id="Untitled">
<path d="M46.8658 34.6462L57.8414 23.5974C58.3902 23.0486 58.3902 22.2072 57.8414 21.6584L53.3414 17.1584C52.7927 16.6096 51.9878 16.6096 51.439 17.1584L46.8658 21.695L46.8658 10.756C46.8658 9.98767 46.2439 9.36572 45.4756 9.36572L16.5731 9.36572C15.8048 9.36572 15.2195 9.98767 15.2195 10.756L15.2195 51.256C15.2195 51.9877 15.8048 52.6462 16.5731 52.6462L45.5488 52.6462C46.2805 52.6462 46.939 52.0243 46.8658 51.256L46.8658 34.6462ZM35.1585 33.4389C35.0122 33.6584 34.8658 33.9145 34.7561 34.134L33.4024 39.9877C33.2195 41.1218 33.7317 41.8535 34.9024 41.7804L40.8292 40.3901L40.8658 40.3901C41.1219 40.3901 41.3048 40.2804 41.4512 40.0974L44.0853 37.4633L44.0853 49.8657L17.9634 49.8657L17.9634 12.1462L44.0853 12.1462L44.0853 24.4755L35.1585 33.4389ZM39.8048 37.7926L36.4756 38.5243L37.2439 35.2316L52.2805 20.1218L54.878 22.7194L39.8048 37.7926Z" fill="#1dca79" fill-rule="evenodd" opacity="1" stroke="none"/>
</g>
</svg>
