<?xml version="1.0" encoding="UTF-8" standalone="no"?>
<!DOCTYPE svg PUBLIC "-//W3C//DTD SVG 1.1//EN" "http://www.w3.org/Graphics/SVG/1.1/DTD/svg11.dtd">
<!-- Created with Vectornator (http://vectornator.io/) -->
<svg height="100%" stroke-miterlimit="10" style="fill-rule:nonzero;clip-rule:evenodd;stroke-linecap:round;stroke-linejoin:round;" version="1.1" viewBox="0 0 52.5 52.5" width="100%" xml:space="preserve" xmlns="http://www.w3.org/2000/svg" xmlns:vectornator="http://vectornator.io" xmlns:xlink="http://www.w3.org/1999/xlink">
<defs/>
<g id="Untitled" vectornator:layerName="Untitled">
<g opacity="1">
<clipPath id="ClipPath">
<path d="M12.2704 6.38744L40.3599 6.38744L40.3599 46.1761L12.2704 46.1761L12.2704 6.38744Z"/>
</clipPath>
<g clip-path="url(#ClipPath)">
<path d="M26.2695 7.49219C25.7344 7.49219 25.2031 7.52734 24.6719 7.59375C24.1445 7.66016 23.6211 7.76172 23.1055 7.89844C22.5859 8.03516 22.082 8.19922 21.5859 8.40234C21.0898 8.60156 20.6094 8.83203 20.1406 9.09375C19.6758 9.35547 19.2266 9.64453 18.7969 9.96484C18.3672 10.2812 17.9609 10.6289 17.5742 11C17.1875 11.3711 16.8242 11.7656 16.4883 12.1797C16.1523 12.5977 15.8438 13.0352 15.5625 13.4922C15.2773 13.9492 15.0273 14.4219 14.8047 14.9141C14.582 15.4023 14.3945 15.9023 14.2344 16.418C14.0742 16.9297 13.9492 17.4531 13.8555 17.9805C13.7656 18.5117 13.7031 19.0469 13.6797 19.582C13.6523 20.1211 13.6602 20.6562 13.7031 21.1953C13.7461 21.7305 13.8203 22.2617 13.9297 22.7891C14.0391 23.3164 14.1797 23.832 14.3555 24.3398C14.5312 24.8477 14.7344 25.3438 14.9727 25.8281L23.668 43.5391C23.8867 43.9805 24.2031 44.3359 24.6172 44.5977C25.0352 44.8594 25.4883 44.9883 25.9805 44.9922L25.9922 44.9922C26.4805 44.9922 26.9336 44.8633 27.3516 44.6055C27.7656 44.3477 28.0859 43.9961 28.3047 43.5586L37.3125 25.582C37.5508 25.1094 37.7578 24.6211 37.9336 24.1211C38.1094 23.625 38.25 23.1133 38.3633 22.5977C38.4727 22.0781 38.5508 21.5547 38.5977 21.0273C38.6406 20.4961 38.6523 19.9688 38.6328 19.4375C38.6094 18.9102 38.5547 18.3828 38.4648 17.8594C38.3789 17.3359 38.2578 16.8203 38.1016 16.3164C37.9492 15.8086 37.7617 15.3125 37.5469 14.8281C37.332 14.3477 37.0859 13.8789 36.8086 13.4258C36.5312 12.9766 36.2305 12.543 35.8984 12.1289C35.5703 11.7188 35.2148 11.3281 34.832 10.9609C34.4531 10.5938 34.0508 10.2539 33.6289 9.9375C33.207 9.62109 32.7656 9.33594 32.3047 9.07422C31.8477 8.81641 31.3711 8.58984 30.8828 8.39062C30.3945 8.19531 29.8984 8.02734 29.3867 7.89453C28.8789 7.76172 28.3633 7.66016 27.8398 7.59375C27.3203 7.52344 26.7969 7.49219 26.2695 7.49219ZM36.0664 24.9492L27.0547 42.9219C26.957 43.125 26.8086 43.2891 26.6172 43.4062C26.4258 43.5273 26.2148 43.5859 25.9883 43.582L25.9844 43.582C25.7578 43.5859 25.5469 43.5234 25.3555 43.4023C25.1641 43.2812 25.0195 43.1172 24.918 42.9141L16.2266 25.2031C16.0156 24.7734 15.832 24.332 15.6797 23.8828C15.5234 23.4297 15.3984 22.9688 15.3008 22.5C15.2031 22.0312 15.1367 21.5586 15.0977 21.082C15.0625 20.6055 15.0547 20.1289 15.0781 19.6523C15.0977 19.1719 15.1523 18.6992 15.2344 18.2266C15.3164 17.7578 15.4297 17.293 15.5703 16.8359C15.7109 16.3789 15.8789 15.9336 16.0781 15.5C16.2734 15.0625 16.5 14.6445 16.75 14.2383C17 13.832 17.2734 13.4414 17.5742 13.0703C17.875 12.6992 18.1953 12.3477 18.5391 12.0195C18.8828 11.6875 19.2461 11.3828 19.625 11.0977C20.0078 10.8164 20.4062 10.5586 20.8203 10.3242C21.2383 10.0898 21.6641 9.88672 22.1055 9.70703C22.5469 9.53125 22.9961 9.38281 23.457 9.26172C23.9141 9.14062 24.3789 9.05078 24.8516 8.99219C25.3203 8.92969 25.793 8.89844 26.2695 8.89844C26.7344 8.89844 27.1992 8.92969 27.6641 8.98828C28.125 9.04688 28.5859 9.13672 29.0352 9.25781C29.4883 9.375 29.9297 9.52344 30.3633 9.69922C30.7969 9.87109 31.2148 10.0742 31.625 10.3047C32.0312 10.5352 32.4219 10.7891 32.7969 11.0703C33.1719 11.3477 33.5312 11.6523 33.8672 11.9766C34.2031 12.3008 34.5195 12.6484 34.8125 13.0156C35.1055 13.3789 35.375 13.7656 35.6172 14.1641C35.8633 14.5664 36.082 14.9805 36.2734 15.4102C36.4648 15.8359 36.6289 16.2773 36.7656 16.7266C36.9023 17.1758 37.0117 17.6328 37.0898 18.0977C37.168 18.5625 37.2148 19.0273 37.2344 19.4961C37.2539 19.9688 37.2461 20.4375 37.207 20.9062C37.1641 21.375 37.0977 21.8398 36.9961 22.2969C36.8984 22.7578 36.7695 23.2109 36.6172 23.6523C36.4609 24.0977 36.2773 24.5273 36.0664 24.9492Z" fill="#1dca79" fill-rule="nonzero" opacity="1" stroke="#1dca79" stroke-linecap="butt" stroke-linejoin="round" stroke-width="1.23516"/>
</g>
</g>
<path d="M26.1523 12.6523C25.7227 12.6523 25.2969 12.6953 24.875 12.7812C24.4531 12.8672 24.043 12.9922 23.6445 13.1562C23.2461 13.3242 22.8672 13.5273 22.5078 13.7695C22.1523 14.0078 21.8203 14.2812 21.5156 14.5898C21.2109 14.8984 20.9375 15.2305 20.6992 15.5898C20.4609 15.9531 20.2578 16.332 20.0938 16.7344C19.9297 17.1367 19.8047 17.5469 19.7188 17.9727C19.6367 18.3984 19.5938 18.8281 19.5938 19.2656C19.5938 19.6992 19.6367 20.1289 19.7188 20.5547C19.8047 20.9805 19.9297 21.3906 20.0938 21.793C20.2578 22.1953 20.4609 22.5742 20.6992 22.9375C20.9375 23.2969 21.2109 23.6289 21.5156 23.9375C21.8203 24.2461 22.1523 24.5195 22.5078 24.7578C22.8672 25 23.2461 25.2031 23.6445 25.3711C24.043 25.5352 24.4531 25.6602 24.875 25.7461C25.2969 25.832 25.7227 25.875 26.1523 25.875C26.582 25.875 27.0117 25.832 27.4336 25.7461C27.8555 25.6602 28.2656 25.5352 28.6641 25.3711C29.0625 25.2031 29.4375 25 29.7969 24.7578C30.1562 24.5195 30.4883 24.2461 30.793 23.9375C31.0977 23.6289 31.3672 23.2969 31.6055 22.9375C31.8477 22.5742 32.0469 22.1953 32.2148 21.793C32.3789 21.3906 32.5039 20.9805 32.5859 20.5547C32.6719 20.1289 32.7109 19.6992 32.7109 19.2656C32.7109 18.8281 32.668 18.3984 32.5859 17.9766C32.5 17.5508 32.375 17.1367 32.2109 16.7344C32.0469 16.3359 31.8438 15.9531 31.6055 15.5938C31.3672 15.2344 31.0938 14.8984 30.7891 14.5938C30.4844 14.2852 30.1523 14.0117 29.7969 13.7695C29.4375 13.5273 29.0586 13.3242 28.6641 13.1602C28.2656 12.9922 27.8555 12.8672 27.4336 12.7812C27.0117 12.6992 26.582 12.6562 26.1523 12.6523ZM26.1523 25.0898C25.7734 25.0898 25.3984 25.0547 25.0234 24.9805C24.6523 24.9062 24.2891 24.793 23.9414 24.6484C23.5898 24.5 23.2578 24.3203 22.9414 24.1094C22.625 23.8984 22.332 23.6562 22.0625 23.3828C21.7969 23.1133 21.5547 22.8203 21.3438 22.5C21.1328 22.1836 20.957 21.8477 20.8086 21.4922C20.6641 21.1406 20.5547 20.7773 20.4805 20.4023C20.4062 20.0273 20.3711 19.6445 20.3711 19.2656C20.3711 18.8828 20.4062 18.5039 20.4805 18.125C20.5547 17.75 20.6641 17.3867 20.8086 17.0352C20.957 16.6797 21.1328 16.3438 21.3438 16.0273C21.5547 15.707 21.7969 15.4141 22.0625 15.1445C22.332 14.8711 22.625 14.6328 22.9414 14.418C23.2578 14.207 23.5898 14.0273 23.9414 13.8789C24.2891 13.7344 24.6523 13.6211 25.0234 13.5469C25.3984 13.4727 25.7734 13.4375 26.1523 13.4375C26.5312 13.4375 26.9102 13.4727 27.2812 13.5469C27.6523 13.6211 28.0156 13.7344 28.3672 13.8789C28.7188 14.0273 29.0508 14.207 29.3672 14.418C29.6836 14.6328 29.9727 14.8711 30.2422 15.1445C30.5117 15.4141 30.75 15.707 30.9609 16.0273C31.1719 16.3438 31.3516 16.6797 31.4961 17.0352C31.6406 17.3867 31.75 17.75 31.8242 18.125C31.8984 18.5039 31.9375 18.8828 31.9375 19.2656C31.9375 19.6445 31.8984 20.0234 31.8242 20.3984C31.75 20.7773 31.6406 21.1406 31.4961 21.4922C31.3477 21.8477 31.1719 22.1836 30.9609 22.5C30.75 22.8164 30.5078 23.1133 30.2422 23.3828C29.9727 23.6523 29.6797 23.8945 29.3633 24.1055C29.0508 24.3203 28.7148 24.5 28.3672 24.6445C28.0156 24.793 27.6523 24.9023 27.2812 24.9766C26.9102 25.0547 26.5312 25.0898 26.1523 25.0898Z" fill="#1dca79" fill-rule="nonzero" opacity="1" stroke="#1dca79" stroke-linecap="butt" stroke-linejoin="round" stroke-width="1.23516"/>
</g>
</svg>
